{
	"asset":{
		"generator":"Khronos glTF Blender I/O v4.4.56",
		"version":"2.0"
	},
	"scene":0,
	"scenes":[
		{
			"name":"Scene",
			"nodes":[
				0
			]
		}
	],
	"nodes":[
		{
			"mesh":0,
			"name":"Sphere",
			"scale":[
				0.7695956230163574,
				0.563126802444458,
				1
			]
		}
	],
	"meshes":[
		{
			"name":"Sphere",
			"primitives":[
				{
					"attributes":{
						"POSITION":0,
						"NORMAL":1,
						"TEXCOORD_0":2
					},
					"indices":3
				}
			]
		}
	],
	"accessors":[
		{
			"bufferView":0,
			"componentType":5126,
			"count":1051,
			"max":[
				1.7045037746429443,
				3.6119494438171387,
				0.6943015456199646
			],
			"min":[
				-1.7727556228637695,
				-3.1340951919555664,
				-0.6943018436431885
			],
			"type":"VEC3"
		},
		{
			"bufferView":1,
			"componentType":5126,
			"count":1051,
			"type":"VEC3"
		},
		{
			"bufferView":2,
			"componentType":5126,
			"count":1051,
			"type":"VEC2"
		},
		{
			"bufferView":3,
			"componentType":5123,
			"count":5310,
			"type":"SCALAR"
		}
	],
	"bufferViews":[
		{
			"buffer":0,
			"byteLength":12612,
			"byteOffset":0,
			"target":34962
		},
		{
			"buffer":0,
			"byteLength":12612,
			"byteOffset":12612,
			"target":34962
		},
		{
			"buffer":0,
			"byteLength":8408,
			"byteOffset":25224,
			"target":34962
		},
		{
			"buffer":0,
			"byteLength":10620,
			"byteOffset":33632,
			"target":34963
		}
	],
	"buffers":[
		{
			"byteLength":44252,
			"uri":"HATO_Joy.bin"
		}
	]
}
